<svg width="148" height="41" viewBox="0 0 148 41" fill="none" xmlns="http://www.w3.org/2000/svg">
<g clip-path="url(#clip0_21_415)">
<path d="M4.73 12.35V14.35C5.33178 13.5521 6.11177 12.906 7.0077 12.4633C7.90362 12.0205 8.89066 11.7934 9.89 11.8C10.9736 11.755 12.0474 12.0224 12.9834 12.5702C13.9195 13.118 14.6785 13.9232 15.17 14.89C15.7321 13.9238 16.5441 13.1269 17.5208 12.5831C18.4975 12.0393 19.6026 11.7688 20.72 11.8C21.6503 11.7674 22.5735 11.9736 23.4015 12.399C24.2295 12.8243 24.9347 13.4547 25.45 14.23C26.1357 15.4826 26.448 16.9054 26.35 18.33V29.33H21.62V20C21.6975 19.0853 21.5641 18.165 21.23 17.31C21.022 16.8544 20.6844 16.4701 20.2594 16.2051C19.8343 15.9401 19.3407 15.8062 18.84 15.82C18.2659 15.8055 17.6997 15.9562 17.2087 16.254C16.7177 16.5518 16.3225 16.9842 16.07 17.5C15.6605 18.4759 15.4858 19.5343 15.56 20.59V29.27H10.83V20.27C10.9057 19.316 10.7866 18.3566 10.48 17.45C10.2614 16.9576 9.90348 16.5399 9.45035 16.2485C8.99723 15.9571 8.46872 15.8047 7.93 15.81C7.39407 15.8159 6.86871 15.9598 6.40455 16.2278C5.9404 16.4958 5.5531 16.8788 5.28 17.34C4.82217 18.3551 4.63278 19.4707 4.73 20.58V29.26H0V12.35H4.73Z" fill="#1B74BD"/>
<path d="M47.58 20.8C47.58 26.15 43.58 29.8 37.81 29.8C32.04 29.8 28.23 26.08 28.23 20.65C28.23 15.49 32.3 11.77 37.96 11.77C43.62 11.77 47.58 15.49 47.58 20.77M33.12 20.77C33.1021 21.7223 33.3686 22.6583 33.8852 23.4584C34.4019 24.2585 35.1454 24.8864 36.0207 25.2619C36.896 25.6374 37.8634 25.7435 38.7992 25.5665C39.7351 25.3895 40.5969 24.9375 41.2747 24.2684C41.9524 23.5992 42.4152 22.7431 42.6041 21.8096C42.7929 20.876 42.6992 19.9074 42.3348 19.0274C41.9704 18.1474 41.352 17.396 40.5585 16.8692C39.765 16.3425 38.8324 16.0642 37.88 16.07C36.6287 16.0725 35.4285 16.5666 34.5381 17.4458C33.6476 18.3249 33.1384 19.5188 33.12 20.77Z" fill="#1B74BD"/>
<path d="M67.72 0V29.28H63V27.09C62.3731 27.9695 61.5381 28.68 60.5697 29.1581C59.6012 29.6362 58.5294 29.8671 57.45 29.83C52.72 29.83 49.12 25.92 49.12 20.83C49.12 15.74 52.72 11.83 57.37 11.83C58.4552 11.8085 59.5303 12.0426 60.5083 12.5134C61.4863 12.9842 62.3399 13.6784 63 14.54V0H67.72ZM54 20.8C53.9907 22.0598 54.4823 23.2716 55.3665 24.169C56.2507 25.0664 57.4552 25.5757 58.715 25.585C59.9748 25.5943 61.1866 25.1027 62.084 24.2185C62.9814 23.3343 63.4907 22.1298 63.5 20.87C63.5093 19.6102 63.0177 18.3984 62.1335 17.501C61.6957 17.0567 61.1746 16.7029 60.6001 16.46C60.0255 16.217 59.4088 16.0896 58.785 16.085C57.5252 16.0757 56.3134 16.5673 55.416 17.4515C54.5186 18.3357 54.0093 19.5402 54 20.8Z" fill="#1B74BD"/>
<path d="M75.21 12.35V14.93C75.6363 13.9859 76.329 13.1869 77.203 12.6309C78.0769 12.0749 79.0942 11.7861 80.13 11.8C80.847 11.7838 81.5582 11.9308 82.21 12.23L81.54 16.65C80.7091 16.1798 79.7497 15.9873 78.8017 16.1006C77.8537 16.2139 76.9667 16.6271 76.27 17.28C75.48 18.18 75.21 19.23 75.21 21.15V29.28H70.48V12.35H75.21Z" fill="#1B74BD"/>
<path d="M100.92 12.35V29.28H96.19V27.09C95.5637 27.9701 94.7289 28.6811 93.7603 29.1593C92.7917 29.6375 91.7195 29.868 90.64 29.83C85.91 29.83 82.31 25.92 82.31 20.83C82.31 15.74 85.91 11.83 90.56 11.83C91.6477 11.812 92.7244 12.0507 93.7026 12.5268C94.6808 13.0029 95.533 13.7029 96.19 14.57V12.35H100.92ZM87.2 20.8C87.1907 22.0598 87.6823 23.2716 88.5665 24.169C89.4507 25.0664 90.6552 25.5757 91.915 25.585C93.1748 25.5943 94.3867 25.1027 95.284 24.2185C96.1814 23.3343 96.6907 22.1298 96.7 20.87C96.7046 20.2462 96.5863 19.6276 96.3518 19.0496C96.1174 18.4715 95.7713 17.9453 95.3335 17.501C94.8957 17.0566 94.3746 16.7029 93.8001 16.46C93.2255 16.217 92.6088 16.0896 91.985 16.085C91.3612 16.0804 90.7426 16.1987 90.1646 16.4332C89.5865 16.6676 89.0603 17.0137 88.616 17.4515C88.1717 17.8893 87.8179 18.4104 87.575 18.9849C87.332 19.5594 87.2046 20.1762 87.2 20.8Z" fill="#1B74BD"/>
<path d="M115.51 12.35V14.46C116.094 13.5974 116.89 12.8996 117.822 12.4337C118.754 11.9679 119.79 11.7496 120.83 11.8C121.745 11.7676 122.656 11.929 123.504 12.2737C124.352 12.6184 125.117 13.1385 125.75 13.8C126.75 14.93 127.08 16.18 127.08 18.49V29.28H122.35V19.9C122.444 18.961 122.282 18.0139 121.88 17.16C121.573 16.7174 121.156 16.3622 120.671 16.129C120.185 15.8959 119.647 15.7928 119.11 15.83C116.68 15.83 115.51 17.32 115.51 20.52V29.28H110.78V12.35H115.51Z" fill="#1B74BD"/>
<path d="M135.23 5.20001C135.232 5.76608 135.066 6.32001 134.753 6.79165C134.44 7.26329 133.994 7.63142 133.471 7.84942C132.949 8.06742 132.374 8.12549 131.818 8.01627C131.263 7.90704 130.752 7.63545 130.351 7.23587C129.95 6.83629 129.677 6.32671 129.566 5.77165C129.455 5.2166 129.511 4.64103 129.727 4.11785C129.943 3.59467 130.309 3.14741 130.78 2.83271C131.251 2.518 131.804 2.35001 132.37 2.35001C133.126 2.35262 133.85 2.65341 134.386 3.18704C134.921 3.72067 135.225 4.44403 135.23 5.20001ZM134.72 29.28H130V12.35H134.73L134.72 29.28Z" fill="#1B74BD"/>
<path d="M144.09 29.28H139.36V16.46H137.48V12.35H139.36V6.57001H144.09V12.35H147.45V16.46H144.09V29.28Z" fill="#1B74BD"/>
<path d="M21.64 38.74L21.22 39.69H20.6L22.35 35.83L24.06 39.69H23.43L23 38.74H21.64ZM22.34 37.07L21.84 38.22H22.84L22.34 37.07Z" fill="#1B74BD"/>
<path d="M28.24 37.83C28.2673 38.0625 28.2673 38.2975 28.24 38.53C28.1377 38.8968 27.9159 39.2189 27.6097 39.4453C27.3036 39.6718 26.9306 39.7896 26.55 39.78C26.054 39.78 25.5784 39.583 25.2277 39.2323C24.877 38.8816 24.68 38.406 24.68 37.91C24.68 37.4141 24.877 36.9384 25.2277 36.5877C25.5784 36.237 26.054 36.04 26.55 36.04C26.9913 36.0396 27.4178 36.1995 27.75 36.49C27.8973 36.6196 28.0313 36.7637 28.15 36.92L27.73 37.3C27.34 36.75 27.03 36.56 26.56 36.56C26.2019 36.56 25.8586 36.7022 25.6054 36.9554C25.3522 37.2086 25.21 37.552 25.21 37.91C25.21 38.2681 25.3522 38.6114 25.6054 38.8646C25.8586 39.1178 26.2019 39.26 26.56 39.26C26.8852 39.2549 27.1963 39.1262 27.43 38.9C27.5717 38.7481 27.6625 38.5559 27.69 38.35H26.69V37.83H28.24Z" fill="#1B74BD"/>
<path d="M30.06 36.66V37.5H31.49V38.02H30.06V39.17H31.53V39.69H29.5V36.15H31.53V36.66H30.06Z" fill="#1B74BD"/>
<path d="M32.81 35.85L35.53 38.66L35.52 36.15H36.09V39.98L33.37 37.18V39.69H32.81V35.85Z" fill="#1B74BD"/>
<path d="M40.36 37.21C40.2254 37.0224 40.0504 36.8675 39.8479 36.7568C39.6453 36.646 39.4205 36.5822 39.19 36.57C38.8533 36.599 38.5397 36.7533 38.3113 37.0024C38.0828 37.2514 37.9561 37.577 37.9561 37.915C37.9561 38.2529 38.0828 38.5786 38.3113 38.8276C38.5397 39.0766 38.8533 39.2309 39.19 39.26C39.4178 39.2468 39.6399 39.1835 39.8404 39.0746C40.0409 38.9657 40.2149 38.8139 40.35 38.63V39.38C40.0175 39.6366 39.61 39.7771 39.19 39.78C38.8897 39.7833 38.593 39.7143 38.325 39.5787C38.057 39.4431 37.8257 39.2449 37.6505 39.001C37.4753 38.7571 37.3614 38.4745 37.3185 38.1773C37.2756 37.88 37.3049 37.5768 37.4039 37.2933C37.503 37.0098 37.6689 36.7543 37.8876 36.5484C38.1063 36.3426 38.3713 36.1924 38.6603 36.1107C38.9493 36.029 39.2537 36.018 39.5478 36.0788C39.842 36.1396 40.1171 36.2704 40.35 36.46L40.36 37.21Z" fill="#1B74BD"/>
<path d="M42.21 36.14H41.64V39.68H42.21V36.14Z" fill="#1B74BD"/>
<path d="M44.5 38.94C44.5226 39.0975 44.5101 39.2581 44.4635 39.4102C44.4168 39.5623 44.3371 39.7023 44.23 39.82C44.153 39.8978 44.061 39.9592 43.9596 40.0004C43.8582 40.0417 43.7495 40.0619 43.64 40.06C43.4955 40.055 43.3535 40.0205 43.2228 39.9586C43.0921 39.8967 42.9754 39.8087 42.88 39.7L43.2 39.26C43.41 39.48 43.49 39.52 43.61 39.52C43.73 39.52 43.9 39.35 43.9 38.92V36.12H44.47L44.5 38.94Z" fill="#1B74BD"/>
<path d="M46.48 38.74L46.06 39.69H45.44L47.19 35.83L48.89 39.69H48.27L47.85 38.74H46.48ZM47.17 37.07L46.68 38.22H47.68L47.17 37.07Z" fill="#1B74BD"/>
<path d="M54.27 39.17V39.69H51.49L53.44 36.66H51.8V36.15H54.4L52.45 39.17H54.27Z" fill="#1B74BD"/>
<path d="M55.87 38.74L55.45 39.69H54.83L56.58 35.83L58.28 39.69H57.66L57.24 38.74H55.87ZM56.56 37.07L56.07 38.22H57.07L56.56 37.07Z" fill="#1B74BD"/>
<path d="M62 39.69H61.43V36.14H62.3C62.6362 36.1084 62.9719 36.2048 63.24 36.41C63.3529 36.504 63.4437 36.6218 63.5059 36.7548C63.5681 36.8879 63.6002 37.0331 63.6 37.18C63.6 37.82 63.13 38.18 62.38 38.18H62V39.69ZM62.37 37.69C62.8 37.69 63.03 37.51 63.03 37.16C63.03 36.81 62.81 36.64 62.34 36.64H62V37.69H62.37Z" fill="#1B74BD"/>
<path d="M67 39.69H66.31L65.31 38.22H65.15V39.69H64.6V36.14H65.39C65.7033 36.1145 66.017 36.1842 66.29 36.34C66.4267 36.4348 66.5376 36.5621 66.6127 36.7105C66.6878 36.8589 66.7247 37.0237 66.72 37.19C66.7262 37.4198 66.6529 37.6447 66.5127 37.8268C66.3725 38.009 66.1737 38.1372 65.95 38.19L67 39.69ZM65.43 37.69C65.88 37.69 66.12 37.51 66.12 37.15C66.12 36.79 65.9 36.63 65.43 36.63H65.14V37.69H65.43Z" fill="#1B74BD"/>
<path d="M71.5 37.92C71.4652 38.3988 71.2504 38.8467 70.8989 39.1736C70.5473 39.5005 70.0851 39.6822 69.605 39.6822C69.1249 39.6822 68.6627 39.5005 68.3111 39.1736C67.9596 38.8467 67.7448 38.3988 67.71 37.92C67.7448 37.4412 67.9596 36.9933 68.3111 36.6664C68.6627 36.3395 69.1249 36.1577 69.605 36.1577C70.0851 36.1577 70.5473 36.3395 70.8989 36.6664C71.2504 36.9933 71.4652 37.4412 71.5 37.92ZM68.29 37.92C68.292 38.1806 68.3711 38.4349 68.5173 38.6506C68.6635 38.8664 68.8704 39.034 69.1117 39.1324C69.3531 39.2307 69.6182 39.2555 69.8736 39.2034C70.129 39.1513 70.3632 39.0248 70.5469 38.8398C70.7305 38.6549 70.8552 38.4196 70.9053 38.1639C70.9554 37.9081 70.9287 37.6432 70.8285 37.4026C70.7283 37.162 70.5591 36.9564 70.3423 36.8118C70.1254 36.6672 69.8706 36.59 69.61 36.59C69.259 36.5926 68.9233 36.7339 68.676 36.9831C68.4287 37.2322 68.29 37.569 68.29 37.92Z" fill="#1B74BD"/>
<path d="M73.28 38.94C73.3026 39.0975 73.2901 39.2581 73.2434 39.4102C73.1968 39.5623 73.1171 39.7023 73.01 39.82C72.9326 39.8973 72.8406 39.9584 72.7393 39.9996C72.6379 40.0408 72.5294 40.0614 72.42 40.06C72.2755 40.055 72.1335 40.0205 72.0028 39.9586C71.8721 39.8967 71.7554 39.8087 71.66 39.7L71.98 39.26C72.18 39.48 72.26 39.52 72.39 39.52C72.52 39.52 72.68 39.35 72.68 38.92V36.12H73.25L73.28 38.94Z" fill="#1B74BD"/>
<path d="M75.42 36.66V37.5H76.86V38.02H75.42V39.17H76.89V39.69H74.86V36.15H76.89V36.66H75.42Z" fill="#1B74BD"/>
<path d="M80.13 36.15H80.91L79.28 37.77L80.94 39.69H80.17L78.84 38.12L78.73 38.22V39.69H78.17V36.15H78.73V37.55L80.13 36.15Z" fill="#1B74BD"/>
<path d="M82.78 39.69H82.21V36.66H81.34V36.15H83.64V36.66H82.78V39.69Z" fill="#1B74BD"/>
<path d="M84.64 35.85L87.36 38.66V36.15H87.92V39.98L85.2 37.18V39.69H84.64V35.85Z" fill="#1B74BD"/>
<path d="M90.06 38.3C90.0343 38.5152 90.069 38.7333 90.16 38.93C90.2402 39.0337 90.3433 39.1175 90.4613 39.1748C90.5793 39.232 90.7089 39.2612 90.84 39.26C90.9714 39.2628 91.1015 39.2343 91.2197 39.1769C91.338 39.1195 91.4409 39.0349 91.52 38.93C91.611 38.7333 91.6457 38.5152 91.62 38.3V36.14H92.19V38.39C92.2142 38.7038 92.1256 39.0159 91.94 39.27C91.8048 39.43 91.6364 39.5586 91.4464 39.6468C91.2564 39.735 91.0495 39.7807 90.84 39.7807C90.6305 39.7807 90.4236 39.735 90.2336 39.6468C90.0436 39.5586 89.8752 39.43 89.74 39.27C89.5544 39.0159 89.4658 38.7038 89.49 38.39V36.14H90.06V38.3Z" fill="#1B74BD"/>
<path d="M96.86 38.54L97.8 36.15H98.41L96.85 40.06L95.3 36.15H95.92L96.86 38.54Z" fill="#1B74BD"/>
<path d="M99.91 36.14H99.34V39.68H99.91V36.14Z" fill="#1B74BD"/>
<path d="M101.48 36.14H102.31C102.794 36.1027 103.274 36.2531 103.65 36.56C103.849 36.7261 104.01 36.934 104.12 37.1691C104.23 37.4041 104.287 37.6604 104.287 37.92C104.287 38.1795 104.23 38.4359 104.12 38.6709C104.01 38.9059 103.849 39.1139 103.65 39.28C103.276 39.5758 102.806 39.7219 102.33 39.69H101.5L101.48 36.14ZM102.33 39.14C102.668 39.1611 103.002 39.058 103.27 38.85C103.47 38.6739 103.61 38.439 103.67 38.1789C103.729 37.9187 103.705 37.6465 103.601 37.4007C103.497 37.155 103.318 36.9483 103.09 36.8099C102.862 36.6716 102.596 36.6086 102.33 36.63H102.05V39.14H102.33Z" fill="#1B74BD"/>
<path d="M106.07 39.17H107.11V39.69H105.51V36.15H106.07V39.17Z" fill="#1B74BD"/>
<path d="M109.1 38.94C109.123 39.0975 109.11 39.2581 109.063 39.4102C109.017 39.5623 108.937 39.7023 108.83 39.82C108.755 39.897 108.664 39.958 108.565 39.9993C108.465 40.0405 108.358 40.0612 108.25 40.06C108.104 40.0541 107.961 40.0192 107.829 39.9574C107.697 39.8956 107.578 39.8081 107.48 39.7L107.81 39.26C108.02 39.48 108.1 39.52 108.22 39.52C108.34 39.52 108.52 39.35 108.52 38.92V36.12H109.08L109.1 38.94Z" fill="#1B74BD"/>
<path d="M111.25 36.14H110.68V39.68H111.25V36.14Z" fill="#1B74BD"/>
<path d="M113.74 38.54L114.68 36.15H115.3L113.74 40.06L112.18 36.15H112.81L113.74 38.54Z" fill="#1B74BD"/>
<path d="M119.58 37.92C119.58 38.4239 119.38 38.9072 119.024 39.2635C118.667 39.6198 118.184 39.82 117.68 39.82C117.176 39.82 116.693 39.6198 116.336 39.2635C115.98 38.9072 115.78 38.4239 115.78 37.92C115.78 37.4161 115.98 36.9328 116.336 36.5765C116.693 36.2202 117.176 36.02 117.68 36.02C118.184 36.02 118.667 36.2202 119.024 36.5765C119.38 36.9328 119.58 37.4161 119.58 37.92ZM116.36 37.92C116.362 38.1806 116.441 38.4348 116.587 38.6506C116.734 38.8663 116.94 39.034 117.182 39.1324C117.423 39.2307 117.688 39.2555 117.944 39.2034C118.199 39.1513 118.433 39.0248 118.617 38.8398C118.8 38.6548 118.925 38.4196 118.975 38.1639C119.025 37.9081 118.999 37.6432 118.899 37.4026C118.798 37.1619 118.629 36.9564 118.412 36.8118C118.195 36.6672 117.941 36.59 117.68 36.59C117.329 36.5926 116.993 36.7339 116.746 36.9831C116.499 37.2322 116.36 37.569 116.36 37.92Z" fill="#1B74BD"/>
<path d="M122.37 37C122.17 36.66 122.06 36.58 121.8 36.58C121.735 36.5773 121.67 36.5877 121.609 36.6105C121.548 36.6333 121.492 36.6681 121.444 36.7128C121.397 36.7575 121.358 36.8112 121.332 36.8709C121.306 36.9305 121.291 36.9948 121.29 37.06C121.292 37.1199 121.309 37.1783 121.341 37.2292C121.373 37.2802 121.417 37.3218 121.47 37.35C121.662 37.4563 121.863 37.5466 122.07 37.62C122.68 37.87 122.94 38.17 122.94 38.62C122.952 38.9409 122.836 39.2534 122.617 39.4888C122.399 39.7241 122.096 39.8631 121.775 39.875C121.454 39.8869 121.142 39.7709 120.906 39.5524C120.671 39.3339 120.532 39.0309 120.52 38.71L121.08 38.56C121.16 39.05 121.36 39.26 121.75 39.26C121.83 39.2613 121.909 39.2468 121.983 39.2172C122.057 39.1877 122.124 39.1437 122.181 39.0878C122.238 39.032 122.283 38.9654 122.313 38.892C122.344 38.8185 122.36 38.7397 122.36 38.66C122.367 38.5741 122.346 38.4882 122.301 38.4146C122.256 38.341 122.189 38.2834 122.11 38.25C121.918 38.1307 121.714 38.0334 121.5 37.96C120.95 37.73 120.72 37.46 120.72 37.04C120.72 36.9017 120.748 36.7648 120.803 36.6379C120.858 36.5111 120.939 36.397 121.041 36.303C121.142 36.2091 121.262 36.1372 121.393 36.0919C121.523 36.0466 121.662 36.0289 121.8 36.04C122.016 36.0454 122.225 36.1135 122.403 36.236C122.58 36.3586 122.718 36.5302 122.8 36.73L122.37 37Z" fill="#1B74BD"/>
<path d="M125.08 39.69H124.5V36.66H123.64V36.15H125.94V36.66H125.08V39.69Z" fill="#1B74BD"/>
</g>
<defs>
<clipPath id="clip0_21_415">
<rect width="147.45" height="40.06" fill="white"/>
</clipPath>
</defs>
</svg>
