<svg width="18" height="18" viewBox="0 0 18 18" fill="none" xmlns="http://www.w3.org/2000/svg">
<path d="M6.5625 5.25C6.41332 5.25 6.27024 5.30926 6.16475 5.41475C6.05926 5.52024 6 5.66332 6 5.8125C6 5.96168 6.05926 6.10476 6.16475 6.21025C6.27024 6.31574 6.41332 6.375 6.5625 6.375H12.1875C12.3367 6.375 12.4798 6.31574 12.5852 6.21025C12.6907 6.10476 12.75 5.96168 12.75 5.8125C12.75 5.66332 12.6907 5.52024 12.5852 5.41475C12.4798 5.30926 12.3367 5.25 12.1875 5.25H6.5625ZM5.25 8.8125C5.25 8.66332 5.30926 8.52024 5.41475 8.41475C5.52024 8.30926 5.66332 8.25 5.8125 8.25H10.6875C10.8367 8.25 10.9798 8.30926 11.0852 8.41475C11.1907 8.52024 11.25 8.66332 11.25 8.8125C11.25 8.96168 11.1907 9.10476 11.0852 9.21025C10.9798 9.31574 10.8367 9.375 10.6875 9.375H5.8125C5.66332 9.375 5.52024 9.31574 5.41475 9.21025C5.30926 9.10476 5.25 8.96168 5.25 8.8125ZM7.3125 11.25C7.16332 11.25 7.02024 11.3093 6.91475 11.4148C6.80926 11.5202 6.75 11.6633 6.75 11.8125C6.75 11.9617 6.80926 12.1048 6.91475 12.2102C7.02024 12.3157 7.16332 12.375 7.3125 12.375H12.1875C12.3367 12.375 12.4798 12.3157 12.5852 12.2102C12.6907 12.1048 12.75 11.9617 12.75 11.8125C12.75 11.6633 12.6907 11.5202 12.5852 11.4148C12.4798 11.3093 12.3367 11.25 12.1875 11.25H7.3125Z" fill="#384655"/>
<path d="M1.5 2.8125C1.5 2.088 2.088 1.5 2.8125 1.5H15.1875C15.912 1.5 16.5 2.088 16.5 2.8125V15.1875C16.5 15.5356 16.3617 15.8694 16.1156 16.1156C15.8694 16.3617 15.5356 16.5 15.1875 16.5H2.8125C2.4644 16.5 2.13056 16.3617 1.88442 16.1156C1.63828 15.8694 1.5 15.5356 1.5 15.1875V2.8125ZM2.8125 2.625C2.76277 2.625 2.71508 2.64475 2.67992 2.67992C2.64475 2.71508 2.625 2.76277 2.625 2.8125V15.1875C2.625 15.291 2.709 15.375 2.8125 15.375H15.1875C15.2372 15.375 15.2849 15.3552 15.3201 15.3201C15.3552 15.2849 15.375 15.2372 15.375 15.1875V2.8125C15.375 2.76277 15.3552 2.71508 15.3201 2.67992C15.2849 2.64475 15.2372 2.625 15.1875 2.625H2.8125Z" fill="#384655"/>
</svg>
